<svg width="453" height="207" viewBox="0 0 453 207" fill="none" xmlns="http://www.w3.org/2000/svg">
<path fill-rule="evenodd" clip-rule="evenodd" d="M26.724 84H0.540039V0.940002H26.724V84ZM24.724 2.94V82H2.54004V2.94H24.724ZM91.1376 76.4406C84.6006 82.1545 75.4214 85.18 64.7316 85.18C54.0417 85.18 44.8626 82.1545 38.3256 76.4406C31.7583 70.7002 28.0396 62.4013 28.0396 52.264C28.0396 42.0705 31.7565 33.7693 38.3277 28.0414C44.8669 22.3413 54.0467 19.348 64.7316 19.348C75.4164 19.348 84.5963 22.3413 91.1355 28.0414C96.7779 32.9597 100.316 39.7753 101.203 48.0571C102.091 39.7753 105.629 32.9597 111.271 28.0414C117.81 22.3413 126.99 19.348 137.675 19.348C148.36 19.348 157.54 22.3413 164.079 28.0414C170.65 33.7693 174.367 42.0705 174.367 52.264C174.367 62.4013 170.648 70.7002 164.081 76.4406C157.544 82.1545 148.365 85.18 137.675 85.18C126.985 85.18 117.806 82.1545 111.269 76.4406C105.63 71.5114 102.091 64.6956 101.203 56.4494C100.316 64.6956 96.7768 71.5114 91.1376 76.4406ZM55.9431 59.6779C57.2667 60.8802 59.7457 61.592 64.7316 61.592C69.7174 61.592 72.1965 60.8802 73.52 59.6779C74.7769 58.5362 75.4756 56.4909 75.4756 52.264C75.4756 48.0399 74.7781 45.9533 73.5078 44.7799C72.182 43.5553 69.7033 42.818 64.7316 42.818C59.7598 42.818 57.2812 43.5553 55.9553 44.7799C54.685 45.9533 53.9876 48.0399 53.9876 52.264C53.9876 56.4909 54.6863 58.5362 55.9431 59.6779ZM128.886 59.6779C130.21 60.8802 132.689 61.592 137.675 61.592C142.661 61.592 145.14 60.8802 146.463 59.6779C147.72 58.5362 148.419 56.4909 148.419 52.264C148.419 48.0399 147.722 45.9533 146.451 44.7799C145.125 43.5553 142.647 42.818 137.675 42.818C132.703 42.818 130.225 43.5553 128.899 44.7799C127.628 45.9533 126.931 48.0399 126.931 52.264C126.931 56.4909 127.63 58.5362 128.886 59.6779ZM201.88 84H175.696V0.940002H201.88V41.178H209.282L222.38 20.528H253.614L231.001 51.4797L253.099 84H222.049L209.541 65.002H201.88V84ZM210.618 63.002L223.126 82H249.322L228.554 51.438L249.676 22.528H223.48L210.382 43.178H199.88V2.94H177.696V82H199.88V63.002H210.618ZM25.308 186H0.540039V102.94H26.724V131.611C27.887 129.607 29.3856 127.825 31.2658 126.327C35.3494 123.073 40.9989 121.348 48.324 121.348C57.5215 121.348 64.9298 124.411 70.0093 130.234C75.0543 136.019 77.582 144.274 77.582 154.264C77.582 164.209 74.9881 172.472 69.784 178.271C64.5515 184.101 56.9126 187.18 47.38 187.18C40.1928 187.18 34.4451 185.784 30.2145 182.586C28.1728 181.043 26.5526 179.132 25.308 176.877V186ZM25.308 171.637C28.0272 180.887 34.9972 185.18 47.38 185.18C65.552 185.18 75.582 173.498 75.582 154.264C75.582 134.912 65.788 123.348 48.324 123.348C35.9184 123.348 29.3151 128.506 26.724 136.543C26.3823 137.603 26.1103 138.713 25.904 139.868H24.724V104.94H2.54004V184H23.308V167.952H24.488C24.697 169.258 24.9696 170.486 25.308 171.637ZM26.724 153.556V154.382C26.724 158.318 27.777 160.139 29.4014 161.179C31.2805 162.382 34.3943 162.884 39.356 162.884C44.4371 162.884 47.2883 162.184 48.8899 160.953C50.3325 159.844 51.162 157.965 51.162 154.264C51.162 150.563 50.3323 148.644 48.8765 147.505C47.2742 146.252 44.4247 145.526 39.356 145.526C34.3726 145.526 31.2451 145.971 29.3566 147.111C27.7598 148.075 26.724 149.761 26.724 153.556ZM149.32 159.567V162.642C149.32 169.967 145.79 176.185 139.649 180.503C133.557 184.787 124.947 187.18 114.634 187.18C104.306 187.18 95.1938 184.982 88.6342 179.636C82.0002 174.228 78.2956 165.865 78.2956 154.264C78.2956 144.072 82.0107 135.778 88.4677 130.053C94.897 124.352 103.871 121.348 114.162 121.348C124.736 121.348 133.659 123.99 139.97 129.345C146.329 134.741 149.792 142.683 149.792 152.73C149.792 154.834 149.666 156.447 149.425 158.615L149.32 159.567ZM123.136 160.394V162.524C123.136 163.197 123.022 163.584 122.884 163.829C122.76 164.05 122.526 164.317 121.965 164.587C120.705 165.196 118.29 165.598 113.808 165.598C109.092 165.598 106.513 165.066 105.05 164.052C104.087 163.384 103.395 162.341 103.048 160.394H123.136ZM101.021 160.394C101.879 165.972 105.308 167.598 113.808 167.598C122.776 167.598 125.136 166.064 125.136 162.524V161.226H147.32V162.642C147.32 162.838 147.317 163.032 147.311 163.226C146.944 176.132 134.397 185.18 114.634 185.18C94.4556 185.18 80.2956 176.566 80.2956 154.264C80.2956 134.912 94.3376 123.348 114.162 123.348C134.694 123.348 147.792 133.614 147.792 152.73C147.792 154.736 147.674 156.27 147.438 158.394H100.828C100.863 159.111 100.926 159.777 101.021 160.394ZM121.85 143.624C120.287 142.792 117.759 142.34 113.69 142.34C109.683 142.34 107.218 142.791 105.688 143.619C104.977 144.003 104.416 144.497 103.989 145.184H123.555C123.137 144.503 122.574 144.01 121.85 143.624ZM125.78 145.184C124.366 141.635 120.754 140.34 113.69 140.34C106.726 140.34 103.215 141.635 101.754 145.184C101.507 145.785 101.318 146.45 101.182 147.184H126.316C126.196 146.45 126.02 145.785 125.78 145.184ZM199.63 186.36C193.258 200.402 184.172 204.06 166.826 204.06H156.088V184H173.316C174.119 184 174.849 183.951 175.496 183.854C176.227 183.744 176.851 183.572 177.351 183.338C177.383 183.323 177.415 183.307 177.446 183.292L149.008 124.528H174.26L184.526 147.892L188.774 161.58H190.308L194.202 147.656L203.052 124.528H227.832L199.63 186.36ZM189.481 157.111L192.3 147.028L201.675 122.528H230.942L201.451 187.186C198.135 194.494 193.999 199.327 188.251 202.258C182.585 205.146 175.59 206.06 166.826 206.06H154.088V182H173.316C173.783 182 174.201 181.982 174.574 181.949L145.818 122.528H175.565L186.402 147.191L189.481 157.111ZM289.571 178.441C283.034 184.154 273.855 187.18 263.165 187.18C252.475 187.18 243.296 184.154 236.759 178.441C230.192 172.7 226.473 164.401 226.473 154.264C226.473 144.071 230.19 135.769 236.761 130.041C243.3 124.341 252.48 121.348 263.165 121.348C273.85 121.348 283.03 124.341 289.569 130.041C296.14 135.769 299.857 144.071 299.857 154.264C299.857 164.401 296.138 172.7 289.571 178.441ZM254.377 161.678C255.7 162.88 258.179 163.592 263.165 163.592C268.151 163.592 270.63 162.88 271.954 161.678C273.21 160.536 273.909 158.491 273.909 154.264C273.909 150.04 273.212 147.953 271.941 146.78C270.616 145.555 268.137 144.818 263.165 144.818C258.193 144.818 255.715 145.555 254.389 146.78C253.119 147.953 252.421 150.04 252.421 154.264C252.421 158.491 253.12 160.536 254.377 161.678ZM327.371 186H301.187V122.528H325.955V133.3C327.021 131.301 328.397 129.435 330.133 127.795C334.348 123.809 340.479 121.348 348.853 121.348C357.286 121.348 363.755 123.901 368.108 128.403C372.448 132.891 374.453 139.073 374.453 145.886V186H348.269V154.028C348.269 150.049 347.509 148.115 346.229 147.026C344.845 145.849 342.322 145.172 337.525 145.172C332.634 145.172 330.293 145.83 329.087 146.879C327.985 147.838 327.371 149.556 327.371 153.32V186ZM325.955 138.621C328.357 130.323 335.073 123.348 348.853 123.348C364.901 123.348 372.453 133.024 372.453 145.886V184H350.269V154.028C350.269 145.768 347.201 143.172 337.525 143.172C327.731 143.172 325.371 145.65 325.371 153.32V184H303.187V124.528H323.955V142.582H325.135C325.31 141.244 325.58 139.917 325.955 138.621ZM428.689 104.94H450.873V184H430.105V167.952H428.925C428.716 169.258 428.443 170.486 428.105 171.637C425.386 180.887 418.416 185.18 406.033 185.18C387.861 185.18 377.831 173.498 377.831 154.264C377.831 134.912 387.625 123.348 405.089 123.348C417.494 123.348 424.098 128.506 426.689 136.543C427.031 137.603 427.302 138.713 427.509 139.868H428.689V104.94ZM426.689 131.611V102.94H452.873V186H428.105V176.877C426.86 179.132 425.24 181.043 423.198 182.586C418.968 185.784 413.22 187.18 406.033 187.18C396.5 187.18 388.861 184.101 383.629 178.271C378.425 172.472 375.831 164.209 375.831 154.264C375.831 144.274 378.358 136.019 383.404 130.234C388.483 124.411 395.891 121.348 405.089 121.348C412.414 121.348 418.063 123.073 422.147 126.327C424.027 127.825 425.526 129.607 426.689 131.611ZM404.536 147.505C403.08 148.644 402.251 150.563 402.251 154.264C402.251 157.965 403.08 159.844 404.523 160.953C406.124 162.184 408.976 162.884 414.057 162.884C419.018 162.884 422.132 162.382 424.011 161.179C425.636 160.139 426.689 158.318 426.689 154.382V153.556C426.689 149.761 425.653 148.075 424.056 147.111C422.168 145.971 419.04 145.526 414.057 145.526C408.988 145.526 406.139 146.252 404.536 147.505ZM99.4236 52.264C99.4236 71.498 85.3816 83.18 64.7316 83.18C44.0816 83.18 30.0396 71.498 30.0396 52.264C30.0396 32.912 44.0816 21.348 64.7316 21.348C85.3816 21.348 99.4236 32.912 99.4236 52.264ZM51.9876 52.264C51.9876 60.878 54.7016 63.592 64.7316 63.592C74.7616 63.592 77.4756 60.878 77.4756 52.264C77.4756 43.65 74.7616 40.818 64.7316 40.818C54.7016 40.818 51.9876 43.65 51.9876 52.264ZM172.367 52.264C172.367 71.498 158.325 83.18 137.675 83.18C117.025 83.18 102.983 71.498 102.983 52.264C102.983 32.912 117.025 21.348 137.675 21.348C158.325 21.348 172.367 32.912 172.367 52.264ZM124.931 52.264C124.931 60.878 127.645 63.592 137.675 63.592C147.705 63.592 150.419 60.878 150.419 52.264C150.419 43.65 147.705 40.818 137.675 40.818C127.645 40.818 124.931 43.65 124.931 52.264ZM24.724 153.556V154.382C24.724 162.996 29.444 164.884 39.356 164.884C49.622 164.884 53.162 162.17 53.162 154.264C53.162 146.358 49.622 143.526 39.356 143.526C29.444 143.526 24.724 145.178 24.724 153.556ZM297.857 154.264C297.857 173.498 283.815 185.18 263.165 185.18C242.515 185.18 228.473 173.498 228.473 154.264C228.473 134.912 242.515 123.348 263.165 123.348C283.815 123.348 297.857 134.912 297.857 154.264ZM250.421 154.264C250.421 162.878 253.135 165.592 263.165 165.592C273.195 165.592 275.909 162.878 275.909 154.264C275.909 145.65 273.195 142.818 263.165 142.818C253.135 142.818 250.421 145.65 250.421 154.264ZM414.057 143.526C403.791 143.526 400.251 146.358 400.251 154.264C400.251 162.17 403.791 164.884 414.057 164.884C423.969 164.884 428.689 162.996 428.689 154.382V153.556C428.689 145.178 423.969 143.526 414.057 143.526Z" fill="black"/>
</svg>
