<svg width="61" height="60" viewBox="0 0 61 60" fill="none" xmlns="http://www.w3.org/2000/svg">
<path d="M20 20.608C20.2099 19.1 20.8397 16.292 22.9389 13.796C23.4637 13.12 24.4608 11.924 26.1927 11.04C28.2919 10 30.1811 10 31.0208 10C31.9655 10 34.2221 10.104 36.5312 11.612C39.3652 13.484 40.2573 16.188 40.5197 17.02C40.6772 17.436 41.5169 20.192 40.5197 23.312C39.9424 25.288 38.8928 26.536 38.0007 27.628C34.3271 31.944 31.0733 31.58 30.496 34.388C30.4435 34.492 30.496 35.064 30.496 36" stroke="black" stroke-width="4" stroke-miterlimit="10" stroke-linecap="round" stroke-linejoin="round"/>
<path d="M31 51H30" stroke="black" stroke-width="4" stroke-miterlimit="10" stroke-linecap="round" stroke-linejoin="round"/>
</svg>
